<?xml version="1.0" encoding="iso-8859-1"?>
<!-- Generator: Adobe Illustrator 19.0.0, SVG Export Plug-In . SVG Version: 6.00 Build 0)  -->
<svg version="1.1" id="Capa_1" xmlns="http://www.w3.org/2000/svg" xmlns:xlink="http://www.w3.org/1999/xlink" x="0px" y="0px"
	 viewBox="0 0 512 512" style="enable-background:new 0 0 512 512;" xml:space="preserve">
<g>
	<g>
		<path d="M495.384,130.319H278.706c-9.162,0-16.615,7.453-16.615,16.615v87.813c0,9.163,7.453,16.616,16.615,16.616h216.678
			c9.162,0,16.615-7.453,16.615-16.616v-87.813C512,137.772,504.547,130.319,495.384,130.319z M497,146.933v87.813
			c0,0.891-0.725,1.615-1.614,1.615c-227.952-0.757-218.292,1.562-218.292-1.615v-87.813c0-0.89,0.725-1.614,1.614-1.614
			C506.659,146.076,497,143.757,497,146.933z"/>
	</g>
</g>
<g>
	<g>
		<path d="M364.339,0H147.661c-9.163,0-16.616,7.453-16.616,16.616v87.813c0.001,9.162,7.454,16.615,16.616,16.615h216.677
			c9.162,0,16.615-7.453,16.615-16.615V16.616C380.955,7.453,373.501,0,364.339,0z M365.954,104.429c0,0.89-0.725,1.614-1.614,1.614
			H147.661c-0.89,0-1.615-0.725-1.615-1.614V16.616h0.001c0-3.178-9.661-0.859,218.292-1.615c0.89,0,1.614,0.725,1.614,1.615
			V104.429z"/>
	</g>
</g>
<g>
	<g>
		<path d="M495.384,0h-86.707c-9.162,0-16.615,7.453-16.615,16.616v87.813c0,9.162,7.453,16.615,16.615,16.615h86.707
			c9.162,0,16.615-7.453,16.615-16.615V16.616C512,7.453,504.547,0,495.384,0z M497,104.429c0,0.89-0.725,1.614-1.614,1.614h-86.707
			c-0.89,0-1.614-0.725-1.614-1.614V16.616c0-0.891,0.725-1.615,1.614-1.615h86.707c0.89,0,1.614,0.725,1.614,1.615V104.429z"/>
	</g>
</g>
<g>
	<g>
		<path d="M495.384,260.637h-86.707c-9.162,0-16.615,7.453-16.615,16.616v87.813c0,9.162,7.453,16.615,16.615,16.615h86.707
			c9.162,0,16.615-7.453,16.615-16.615v-87.813C512,268.09,504.547,260.637,495.384,260.637z M497,365.066
			c0,0.89-0.725,1.614-1.614,1.614h-86.707c-0.89,0-1.614-0.725-1.614-1.614v-87.813c0-0.891,0.725-1.615,1.614-1.615h86.707
			c0.89,0,1.614,0.725,1.614,1.615V365.066z"/>
	</g>
</g>
<g>
	<g>
		<path d="M103.324,260.637H16.617C7.454,260.637,0,268.09,0,277.253v87.813c0,9.162,7.453,16.615,16.616,16.615h86.707
			c9.163,0,16.616-7.453,16.616-16.615v-87.813C119.94,268.09,112.486,260.637,103.324,260.637z M104.939,365.066
			c0,0.89-0.724,1.614-1.615,1.614H16.617c-0.89,0-1.615-0.725-1.615-1.614v-87.813c0-0.891,0.725-1.615,1.615-1.615h86.707
			c0.891,0,1.615,0.725,1.615,1.615V365.066z"/>
	</g>
</g>
<g>
	<g>
		<path d="M233.294,130.319H16.617C7.454,130.319,0,137.772,0,146.934v87.813c0,9.163,7.453,16.616,16.616,16.616h216.677
			c9.163,0,16.616-7.453,16.616-16.616v-87.813C249.91,137.772,242.456,130.319,233.294,130.319z M234.909,234.747
			c0,0.891-0.725,1.615-1.615,1.615c-227.953-0.757-218.292,1.561-218.292-1.616v-87.812c0-3.176-9.661-0.858,218.292-1.614
			c0.89,0,1.615,0.725,1.615,1.614V234.747z"/>
	</g>
</g>
<g>
	<g>
		<path d="M495.384,390.956H278.706c-9.162,0-16.615,7.453-16.615,16.615v87.813c0,9.163,7.453,16.616,16.615,16.616h216.678
			c9.162,0,16.615-7.453,16.615-16.616v-87.813C512,398.409,504.547,390.956,495.384,390.956z M497,495.383
			c0,0.891-0.725,1.615-1.614,1.615c-227.952-0.757-218.292,1.562-218.292-1.615V407.57c0-3.176-9.66-0.858,218.292-1.614
			c0.89,0,1.614,0.725,1.614,1.614V495.383z"/>
	</g>
</g>
<g>
	<g>
		<path d="M233.294,390.956H16.617C7.454,390.956,0,398.409,0,407.572v87.812C0,504.547,7.454,512,16.617,512h25.853
			c4.142,0,7.5-3.357,7.5-7.5c0-4.143-3.358-7.5-7.5-7.5H16.617c-0.89,0-1.615-0.725-1.615-1.615v-87.812
			c0-0.891,0.725-1.615,1.615-1.615c227.952,0.757,218.292-1.562,218.292,1.615v87.812c0,3.181,4.991,0.868-157.438,1.615
			c-4.142,0-7.5,3.357-7.5,7.5c0,4.143,3.358,7.5,7.5,7.5h155.822c9.163,0,16.616-7.453,16.616-16.616v-87.812
			C249.91,398.409,242.455,390.956,233.294,390.956z"/>
	</g>
</g>
<g>
	<g>
		<path d="M364.339,260.637h-28.551c-4.143,0-7.5,3.357-7.5,7.5s3.357,7.5,7.5,7.5h28.551c0.89,0,1.614,0.725,1.614,1.615v87.813
			c0,3.176,9.661,0.857-218.291,1.614c-0.89,0-1.615-0.725-1.615-1.614v-87.813c0.001-3.183-4.73-0.868,154.74-1.615
			c4.143,0,7.5-3.357,7.5-7.5c0-4.143-3.357-7.5-7.5-7.5H147.661c-9.163,0-16.616,7.453-16.616,16.616v87.813
			c0,9.162,7.453,16.615,16.616,16.615h216.677c9.162,0,16.615-7.453,16.615-16.615v-87.813
			C380.954,268.09,373.5,260.637,364.339,260.637z"/>
	</g>
</g>
<g>
	<g>
		<path d="M103.323,0H16.617C7.454,0,0,7.453,0,16.616v26.405c0,4.143,3.358,7.5,7.5,7.5c4.142,0,7.5-3.357,7.5-7.5V16.616
			c0-0.89,0.725-1.615,1.615-1.615h86.707c0.891,0,1.615,0.725,1.615,1.615v87.812c0,0.891-0.724,1.615-1.615,1.615H16.617
			c-0.89,0-1.615-0.725-1.615-1.615V78.024c0-4.143-3.358-7.5-7.5-7.5c-4.142,0-7.5,3.357-7.5,7.5v26.405
			c0,9.163,7.453,16.616,16.616,16.616h86.707c9.163,0,16.616-7.453,16.616-16.616V16.616C119.939,7.453,112.485,0,103.323,0z"/>
	</g>
</g>
<g>
</g>
<g>
</g>
<g>
</g>
<g>
</g>
<g>
</g>
<g>
</g>
<g>
</g>
<g>
</g>
<g>
</g>
<g>
</g>
<g>
</g>
<g>
</g>
<g>
</g>
<g>
</g>
<g>
</g>
</svg>
