<svg id="svg14514" height="512" viewBox="0 0 16.933333 16.933334" width="512" xmlns="http://www.w3.org/2000/svg" xmlns:svg="http://www.w3.org/2000/svg"><g id="layer1" transform="translate(0 -280.067)"><path id="path13437" d="m1.8763714 282.44945c-.1116621-.005-.2040096.0453-.2532142.13074-.361188.61461-.70892716 1.2335-1.05988366 1.85415-.03334.059-.042775.12855-.026352.1943l.77514436 3.10059-.76946116 2.30787c-.009.027-.013494.0553-.013441.0837-.0005292.70659.00106 1.4102.00106 2.11615-.0005292.14611.11743.26503.2635488.26561h1.34358586c.1299687.8945.9030097 1.58595 1.8324487 1.58595.9294363 0 1.7001808-.69145 1.8298608-1.58595h4.5196211c.352865 0 .352865-.52917 0-.52917h-4.5191231c-.128992-.89525-.9003904-1.58799-1.8303797-1.58799-.502412 0-.9593236.20286-1.2939792.52968h-1.617472v-.75137l.7803144-2.34043c.015902-.0477.017886-.099.00569-.14779l-.7684268-3.07268.182933-.3235 1.3466894 3.51142.040307 2.33474c.00265.1443.1202611.25994.2645833.25993h1.0593662 4.0033734c.09503.00008.182809-.0508.22996-.13333l.914673-1.60041.407209.28421v1.97921h-3.1884373c-.366208.0185-.338585.54769.01394.52917h4.9433704c-.115044.24087-.181901.50883-.181901.79272 0 1.01974.831821 1.85156 1.851564 1.85156.929429 0 1.701948-.69147 1.83193-1.58595h1.344107c.146928.00053.266176-.11869.265617-.26561v-1.05834c-.000529-.14612-.119496-.26411-.265617-.26355h-.263549v-2.91042c-.00017-.0258-.0043-.0513-.01188-.076l-.788064-2.6293c-.133932-.44684-.372054-.73432-.788067-.73432h-2.910416c-.43516 0-.794781.35808-.794781.79324v4.76146c0 .35287.529166.35287.529166 0v-4.76146c0-.15116.114462-.26355.265615-.26355h2.910416c.175789 0 .228867.18436.275437.33951l.782898 2.60966v2.87114h-1.088823c-.334663-.32682-.791575-.52968-1.293986-.52968-.502393 0-.958257.20288-1.292427.52968h-1.616956v-2.11718c.000016-.0865-.04224-.16754-.1131704-.21704l-.758095-.52917c-.127516-.0888-.303705-.0491-.380854.0858l-.612884 1.07229-2.489769-.43977 2.267046-3.92844 1.619538 1.93838-.254765.44029c-.177104.30577.282173.57087.45837.26458l.3467494-.60048c.05551-.0961.04519-.21656-.02585-.30179l-1.9807584-2.36988c-.01974-.024-.04352-.0442-.07028-.06l-1.83348-1.05833c-.02917-.0168-.06126-.0278-.09457-.0326zm.1152366.55035 3.6778116.5302-1.8810208 3.25768c-.1763898.30559.2819797.57017.4583695.26459l1.9440683-3.36672 1.375627.79375-2.382284 4.12378-1.0986405-.63407c-.1409859-.0814-.2907718-.0215-.3560524.0899-.068271.11655-.058854.28109.085267.36431l1.3342859.7705c.02655.0154.05557.0261.08578.0315l2.675287.47284-.09043.15813h-4.6493286l-.036174-2.12132c-.0005292-.0308-.00651-.0612-.017568-.0899l-1.5198037-3.96152zm9.915677 2.62206c-.146323-.00079-.265552.11723-.266134.26356v1.59008c.000529.14632.119811.26439.266134.26355h.683162l.451136.4532c.04999.0492.117461.0765.187584.076h1.275374c.17609-.001.302035-.17063.252182-.33952l-.633037-2.11718c-.03322-.11246-.136475-.18964-.25373-.18966zm.263549.52917h1.501716l.476457 1.58802h-.810287l-.451135-.45114c-.04965-.0499-.117163-.078-.187585-.078h-.529166zm-.263549 2.64635c-.353121 0-.353121.52969 0 .52969h.529166c.353121 0 .353121-.52969 0-.52969zm-7.9375011 2.1177c.7337584 0 1.3218827.58813 1.3218827 1.32189 0 .73375-.5881243 1.32446-1.3218827 1.32446-.733761 0-1.3244672-.59071-1.3244672-1.32446 0-.73376.5907062-1.32189 1.3244672-1.32189zm8.9937651 0c.733761 0 1.324467.58813 1.324467 1.32189 0 .73375-.590706 1.32446-1.324467 1.32446-.733758 0-1.322398-.59071-1.322398-1.32446 0-.73376.58864-1.32189 1.322398-1.32189zm-11.9062509.52917h1.240753c-.078822.16471-.1342443.34228-.1612318.52916h-1.0795212zm2.9124858 0c-.4352369 0-.7952952.35748-.7953005.79272-.0000026.43524.3600556.7953.7953005.7953s.7927181-.36006.7927155-.7953c-.0000053-.43524-.3574786-.79272-.7927155-.79272zm8.9937651 0c-.435234 0-.79271.35748-.792715.79272-.000003.43524.357473.7953.792715.7953.435248 0 .795303-.36006.795301-.7953-.000006-.43524-.360061-.79272-.795301-.79272zm1.671733 0h1.240753v.52916h-1.080037c-.02699-.18687-.0819-.36446-.160716-.52916zm-10.6654981.52916c.1492594 0 .2635462.1143.2635488.26356 0 .14925-.1142894.26561-.2635488.26561-.1492541 0-.2661364-.11635-.2661338-.26561 0-.14927.1168797-.26356.2661338-.26356zm8.9937651 0c.149262 0 .265615.1143.265618.26356 0 .14925-.116356.26561-.265618.26561-.149254 0-.263549-.11635-.263549-.26561.000003-.14927.114295-.26356.263549-.26356z" font-variant-ligatures="normal" font-variant-position="normal" font-variant-caps="normal" font-variant-numeric="normal" font-variant-alternates="normal" font-feature-settings="normal" text-indent="0" text-align="start" text-decoration-line="none" text-decoration-style="solid" text-decoration-color="rgb(0,0,0)" text-transform="none" text-orientation="mixed" white-space="normal" shape-padding="0" isolation="auto" mix-blend-mode="normal" solid-color="rgb(0,0,0)" solid-opacity="1" vector-effect="none"/></g></svg>