<?xml version="1.0" encoding="UTF-8"?>
<svg xmlns="http://www.w3.org/2000/svg" id="Outline" viewBox="0 0 512 512" width="512" height="512"><path d="M249.19,142.473c38.531-14.518,71.807-27.056,99.659-15.12a8,8,0,0,0,6.3-14.706c-32.942-14.119-69.726-.909-108.664,13.747,13.536-23.433,17.237-51.68,17.451-53.4a8,8,0,0,0-9.253-8.88l-37.633,6.272c.185-14.686-5.378-28.02-16.395-39.038a71.6,71.6,0,0,0-21.686-14.771,8,8,0,0,0-10.862,6.113C168.04,23.1,160.537,64,136,64c-23.474,0-55.851-27.185-66.343-37.657a8,8,0,0,0-13.418,7.6L72.194,97.762A123.3,123.3,0,0,1,44.956,81.72l0,0A8,8,0,0,0,32.411,90.53c.266.8,6.713,19.776,23.61,38.785C71.708,146.963,99.705,168,144,168,181.441,168,217.434,154.438,249.19,142.473ZM136,80c16.319,0,29.858-9.828,39.155-28.422a99.5,99.5,0,0,0,6.123-15.592c9.56,6.42,23.386,19.9,18.877,42.445a8,8,0,0,0,9.16,9.46l36.831-6.138c-3.744,16.915-12.462,42.563-28.289,54.014-11.055-10.686-29.326-30.63-34.1-49.707a8,8,0,0,0-13.9-3.194l-.662.791c-9.784,11.7-19.041,22.766-34.44,28.306a189.253,189.253,0,0,1-44.43-7.614L77.86,54.456C93.363,66.285,115.712,80,136,80ZM68.383,119.137a110.561,110.561,0,0,1-7.057-8.717c35.955,17.04,72.694,17.565,74.612,17.58a8.17,8.17,0,0,0,2.585-.408c15.5-5.153,25.813-14.223,34.7-24.054,7.03,14.783,18.508,28.5,28.455,38.7-18.794,5.711-38,9.76-57.676,9.76C113.427,152,87.986,140.943,68.383,119.137Z"/><path d="M486.679,340.4a8,8,0,0,0,.674-7.555c-10.739-25.058-32.117-43.537-61.823-53.438a148.842,148.842,0,0,0-22.8-5.6c20.368-18.923,58.383-56.118,76.131-85.7a8,8,0,0,0-13.72-8.232c-16.932,28.221-55.213,65.4-74.636,83.411a149.345,149.345,0,0,0-5.915-24.825c-9.9-29.706-28.38-51.084-53.438-61.823A8,8,0,0,0,320,184v30.106c-20.348-3.9-67.84-10.592-106.53,2.305a8,8,0,0,0-4.33,11.705L229.1,261.379,171.76,297.216a8,8,0,0,0-.2,13.44l44.126,29.418L208.021,447.43a8,8,0,0,0,8.549,8.549l107.356-7.667,29.418,44.126A8,8,0,0,0,360,496h.118a8,8,0,0,0,6.666-3.759L402.621,434.9l33.263,19.958a8,8,0,0,0,11.7-4.33c12.9-38.69,6.2-86.181,2.305-106.53H480A8,8,0,0,0,486.679,340.4ZM440,328a8,8,0,0,0-7.761,9.94c.143.575,13.22,53.94,2.909,97.82l-31.032-18.62a8,8,0,0,0-10.9,2.62l-33.433,53.492-25.127-37.69A8,8,0,0,0,328,432c-.189,0-.38.007-.571.021l-102.793,7.342,7.342-102.793a8,8,0,0,0-3.541-7.226l-37.69-25.127,53.492-33.433a8,8,0,0,0,2.62-10.9l-18.619-31.031c43.811-10.28,97.246,2.765,97.819,2.908A8,8,0,0,0,336,224V197.331c33.946,22.262,39.089,67.19,39.863,79.492l-7.453,7.453C334.788,248.443,290,248,288,248a8,8,0,0,0,0,16c.373,0,31.917.3,59.34,22.5-60.316-1.945-93.9,17.71-95.456,18.641a8,8,0,0,0,8.21,13.733c.348-.206,32.558-18.769,89.959-16.24l-83.71,83.71a8,8,0,0,0,11.314,11.314l83.709-83.71c2.526,57.351-16,89.554-16.239,89.958a8,8,0,0,0,13.733,8.211c.931-1.552,20.581-35.127,18.643-95.423C399.524,344.011,400,375.6,400,376.019A8,8,0,0,0,416,376c0-2-.443-46.788-36.276-80.41l7.452-7.453c12.32.776,57.235,5.924,79.493,39.863Z"/><path d="M400,104a7.992,7.992,0,0,0,2.969-.574c1.788-.716,43.9-17.928,52.79-53.488a8,8,0,1,0-15.522-3.88c-6.892,27.567-42.855,42.369-43.221,42.517A8,8,0,0,0,400,104Z"/><path d="M482.478,48.394a8,8,0,0,0-10.084,5.128c-16.622,51.029-65.977,66.6-66.689,66.814a8,8,0,1,0,4.577,15.331c2.36-.7,58.006-17.879,77.324-77.189A8,8,0,0,0,482.478,48.394Z"/><path d="M119.428,298.971a8,8,0,0,0-4.457-10.4A100.267,100.267,0,0,1,95.706,277.53c-8.964-6.519-20.395-17.271-23.945-31.47a8,8,0,1,0-15.522,3.88c8.89,35.56,51,52.772,52.79,53.488a7.994,7.994,0,0,0,10.4-4.457Z"/><path d="M39.606,253.522a8,8,0,0,0-15.212,4.956c19.318,59.31,74.964,76.487,77.324,77.189a8,8,0,0,0,4.581-15.33C105.8,320.187,56.264,304.664,39.606,253.522Z"/></svg>
