<svg height="512" viewBox="0 0 60 60" width="512" xmlns="http://www.w3.org/2000/svg"><g id="Page-1" fill="none" fill-rule="evenodd"><g id="030---Paving" fill="rgb(0,0,0)" fill-rule="nonzero"><path id="Shape" d="m31.432.767c-.5334741-.4939407-1.233971-.76792394-1.961-.767h-14.16c-.9211658.00021408-1.7870882.43940012-2.3314724 1.18249653-.5443843.7430964-.7020563 1.70113889-.4245276 2.57950347l3.545 11.217c.3761089 1.2046906 1.4929666 2.0239898 2.755 2.021h4.145c.2057803.0014387.4065366.0637184.577.179l8.991 6.3c.4862272.3402146 1.0655681.5221535 1.659.521h5.882c1.5959698-.0016536 2.8893464-1.2950302 2.891-2.891v-8.4c-.0011399-.8070184-.3385099-1.5770626-.931-2.125zm9.568 20.342c0 .4920857-.3989143.891-.891.891h-5.882c-.1831381.000104-.3618801-.056102-.512-.161l-9.005-6.308c-.5041453-.3438719-1.0997495-.5288226-1.71-.531h-4.145c-.3889924.0009637-.7332241-.2516351-.849-.623l-3.545-11.218c-.0853938-.27075537-.0366459-.56599791.1312522-.79493194.1678981-.22893402.4348454-.36415111.7187478-.36406806h14.16c.2225225.00062015.4366833.08485672.6.236l10.638 9.817c.1829309.1686796.2869915.4061697.287.655z"/><path id="Shape" d="m57.109 0h-16.156c-1.189953.00013718-2.2582715.72938633-2.6918896 1.83752146-.4336181 1.10813514-.14395 2.36877036.7298896 3.17647854l4.063 3.753c.5365273.49277561 1.2385158.76614785 1.967.766.2741507.00016417.5469146-.03889831.81-.116l12.094-3.558c1.2268587-.36713469 2.0693242-1.49339937 2.075-2.774v-.194c-.0016536-1.59596978-1.2950302-2.88934643-2.891-2.891zm.891 3.085c-.0029076.39445876-.2623464.74105287-.64.855l-12.093 3.56c-.3006994.08669077-.6248442.01095601-.856-.2l-4.062-3.755c-.2689951-.24888808-.3581602-.63709801-.2247254-.97841723.1334349-.34131921.4622511-.56612419.8287254-.56658277h16.156c.4920857 0 .891.39891429.891.891z"/><path id="Shape" d="m58.84 8.883c-.727624-.54955243-1.6735077-.71964067-2.547-.458l-9.219 2.716c-1.2265039.3668254-2.0686698 1.4928265-2.074 2.773v7.2c.0044056 1.5940168 1.296978 2.8843537 2.891 2.886h1.951c.08 0 .161 0 .238-.01l7.267-.6c1.4953907-.1316143 2.6448428-1.3798507 2.653-2.881v-9.309c.0044719-.9130147-.426342-1.77352815-1.16-2.317zm-.84 11.626c-.004191.4617651-.3571821.8454323-.817.888l-7.341.6h-1.951c-.4909165.0000028-.8893471-.3970863-.891-.888v-7.2c.0032088-.3938144.2620926-.7398031.639-.854l9.218-2.717c.0825754-.0237778.1680694-.0358951.254-.036.2372619.000257.4645999.0952395.6315225.2638519s.2596103.3968956.2574775.6341481z"/><path id="Shape" d="m56.869 25.434-4.109.341c-1.1967644.1043221-2.2060908.934036-2.54 2.088l-2.627 9.213c-.2860085 1.0090007-.0049615 2.093804.735 2.837l6.736 6.743c.5345553.543868 1.2644157.8513672 2.027.854.3859767-.0007392.767988-.0778892 1.124-.227 1.0886598-.4373117 1.7974097-1.4978557 1.785-2.671v-16.3c-.0005889-.808183-.3393269-1.5792491-.9341432-2.1263813s-1.3914382-.8204086-2.1968568-.7536187zm1.131 19.178c-.000026.3603559-.2171109.6852173-.5500378.823116-.3329268.1378987-.7161391.0616811-.9709622-.193116l-6.736-6.742c-.228249-.2292079-.3147024-.5639281-.226-.875l2.627-9.213c.1036354-.3549185.4137953-.6103442.782-.644l4.109-.341h.076c.4908482.0021975.8879056.4001481.889.891z"/><path id="Shape" d="m2.891 17h7.8c.9211658-.0002141 1.7870882-.4394001 2.3314724-1.1824965.5443843-.7430964.7020563-1.7011389.4245276-2.5795035l-3.547-11.217c-.37610891-1.2046906-1.49296655-2.02398981-2.755-2.021h-4.254c-1.59596978.00165357-2.88934643 1.29503022-2.891 2.891v11.218c.00165357 1.5959698 1.29503022 2.8893464 2.891 2.891zm-.891-14.109c0-.49208571.39891429-.891.891-.891h4.254c.38899236-.00096372.73322408.25163506.849.623l3.545 11.218c.0853938.2707554.0366459.5659979-.1312522.7949319-.1678981.2289341-.4348454.3641511-.7187478.3640681h-7.8c-.49130448-.0011028-.88900124-.3996943-.889-.891z"/><path id="Shape" d="m1.6 43.8c.97851857.4935981 2.15258659.3877108 3.027-.273l3.753-2.811c.91056169-.6859972 1.33471714-1.8418599 1.084-2.954l-3.754-16.512c-.32642251-1.4351288-1.67891916-2.3959575-3.14151551-2.2317676s-2.56838961 1.4009842-2.56848449 2.8727676v19.327c-.00197241 1.0951584.61842336 2.0963221 1.6 2.582zm.4-21.909c.00057725-.4527039.34053418-.8330163.79034028-.8841597s.86646535.243141.96865972.6841597l3.754 16.514c.07796304.342739-.05238376.6993334-.333.911l-3.754 2.815c-.2700191.2027513-.63144969.2354438-.93346745.0844349-.30201777-.1510089-.49272214-.4597688-.49253255-.7974349z"/><path id="Shape" d="m12.588 60c.9669792.0013214 1.8701757-.4823863 2.405-1.288l5.072-7.612c.5147072-.7738216.6263171-1.7478044.3-2.618l-1.582-4.215c-.3326052-.8882645-1.0801695-1.556587-2-1.788l-4.224-1.06c-.8452166-.2146378-1.7421726-.0336278-2.438.492l-8.966 6.722c-.72512293.547846-1.15242602 1.4031921-1.155 2.312v6.164c.00165357 1.5959698 1.29503022 2.8893464 2.891 2.891zm-10.588-2.891v-6.164c.0010038-.2799435.13221729-.5434794.355-.713l8.964-6.722c.1536116-.1156609.3407139-.1781453.533-.178.0731619.0001465.146033.0092134.217.027l4.225 1.06c.2837127.0711223.5143691.2771056.617.551l1.582 4.216c.098664.2662013.0640994.5635312-.093.8l-5.071 7.614c-.1641854.2492768-.4425113.3995201-.741.4h-9.7c-.49091373-.0016529-.88800278-.4000835-.888-.891z"/><path id="Shape" d="m31.109 51h-7.028c-.9646477.0006263-1.8651989.4831717-2.4 1.286l-2.148 3.219c-.5905333.8867484-.6457015 2.0263637-.143583 2.9660068.5021186.9396432 1.4801963 1.5271213 2.545583 1.5289932h9.174c1.5959698-.0016536 2.8893464-1.2950302 2.891-2.891v-3.218c-.0016536-1.5959698-1.2950302-2.8893464-2.891-2.891zm.891 6.109c0 .4920857-.3989143.891-.891.891h-9.174c-.3286323.0001788-.6306819-.1805551-.785875-.4702349-.155193-.2896797-.1383297-.641268.043875-.9147651l2.148-3.215c.1637382-.249256.4417743-.3995458.74-.4h7.028c.4920857 0 .891.3989143.891.891z"/><path id="Shape" d="m48.044 42.458c-1.1309918-1.1237359-2.9570082-1.1237359-4.088 0l-7.109 7.11c-.5442262.5411186-.8492401 1.2775455-.847 2.045v5.5c.0038557 1.5944075 1.2965887 2.8853519 2.891 2.887h18.218c1.5959698-.0016536 2.8893464-1.2950302 2.891-2.891v-1.509c-.0020956-.7667883-.3068573-1.5017383-.848-2.045zm9.956 14.651c0 .4920857-.3989143.891-.891.891h-18.218c-.4920857 0-.891-.3989143-.891-.891v-5.5c-.0003138-.2363671.0936208-.4631057.261-.63l7.109-7.109c.3479498-.3479143.9120502-.3479143 1.26 0l11.109 11.1c.1662697.1676346.2600058.3938941.261.63z"/><path id="Shape" d="m30.186 25.385c-.1102601-.7980463-.5475244-1.5142613-1.207-1.977l-5.547-3.885c-.4859924-.3409242-1.0653523-.5235675-1.659-.523h-10.895c-.87916037.000082-1.7105126.4002113-2.25903131 1.0872704s-.7545943 1.5863826-.55996869 2.4437296l3.387 14.916c.2384394 1.0657192 1.0602804 1.9042218 2.121 2.164l3.293.821c1.0813268.2670858 2.2200757-.1087402 2.93-.967l9.762-11.851c.5119187-.6226048.7416189-1.4301786.634-2.229zm-2.177.957-9.763 11.852c-.2172579.264882-.5672645.3815508-.9.3l-3.294-.82c-.3277901-.0824521-.5804671-.343655-.652-.674l-3.39-14.912c-.06026642-.2641056.0030331-.5412817.1719746-.7530424.1689414-.2117606.425131-.3350502.6960254-.3349576h10.9c.1833061-.0002019.3621726.0563926.512.162l5.547 3.884c.2046592.1424212.3402787.3640814.3739166.6111394.0336379.2470581-.0377837.4969077-.1969166.6888606z"/><path id="Shape" d="m44.582 39c.3466713-.3473168.5992631-.7771357.734-1.249l2.307-8.069c.2480145-.8718707.0727398-1.8095908-.4734597-2.5330104-.5461994-.7234195-1.4000803-1.1487753-2.3065403-1.1489896h-10.01c-.8646652-.0020056-1.6844788.384588-2.233 1.053l-11.4 13.847c-.6547661.7987434-.8353116 1.8854445-.474 2.853l1.266 3.372c.4257102 1.1267112 1.5035485 1.8729988 2.708 1.875h8.687c.7671082.0019727 1.5031254-.3030207 2.044-.847zm-11.195 8h-8.687c-.3704666-.0026489-.7014614-.2320433-.834-.578l-1.266-3.37c-.1118182-.2983734-.0561809-.6337219.146-.88l11.4-13.848c.1684743-.2060088.4208757-.3250453.687-.324h10.01c.2796663-.0002116.5431674.1310443.7114701.3543993s.221831.5128298.1445299.7816007l-2.306 8.07c-.0421094.1445616-.1198148.2762482-.226.383l-9.15 9.15c-.1667683.1675673-.393589.2615358-.63.261z"/></g></g></svg>