<svg height="512" viewBox="0 0 32 32" width="512" xmlns="http://www.w3.org/2000/svg"><g id="_x31_9"><path d="m29 14c.5527344 0 1-.4472656 1-1v-10c0-.5527344-.4472656-1-1-1h-15c-.5527344 0-1 .4472656-1 1v4h-4v-4c0-.5527344-.4472656-1-1-1h-5c-.5527344 0-1 .4472656-1 1v16c0 .5527344.4472656 1 1 1h4v9c0 .5527344.4472656 1 1 1h16c.5527344 0 1-.4472656 1-1v-4h4c.5527344 0 1-.4472656 1-1v-5c0-.5527344-.4472656-1-1-1h-4v-4zm-1-2h-3v-4-4h3zm-13-8h8v3h-8zm-1 19v-9h4v9zm4-14v3h-9v-3zm-14-5h3v8h-3zm0 10h8v4h-8zm5 6h3v4 4h-3zm14 8h-9v-3h9zm5-5h-8v-3h8zm-8-5v-9h3v9z"/></g></svg>