<?xml version="1.0" encoding="iso-8859-1"?>
<!-- Generator: Adobe Illustrator 19.0.0, SVG Export Plug-In . SVG Version: 6.00 Build 0)  -->
<svg version="1.1" id="Capa_1" xmlns="http://www.w3.org/2000/svg" xmlns:xlink="http://www.w3.org/1999/xlink" x="0px" y="0px"
	 viewBox="0 0 512.001 512.001" style="enable-background:new 0 0 512.001 512.001;" xml:space="preserve">
<g>
	<g>
		<g>
			<path d="M502.001,451.346h-75.272c0.224-6.517,1.466-16.882,5.909-30.695c7.904-24.571,27.59-64.29,76.489-113.978
				c3.025-3.075,3.738-7.744,1.768-11.582c-1.971-3.838-6.179-5.979-10.443-5.312c-1.412,0.221-34.994,5.672-70.65,27.881
				c-23.603,14.702-51.236,38.984-68.033,77.386c1.061-3.769,2.24-7.676,3.58-11.743c14.796-44.925,51.039-117.385,139.685-207.459
				c3.025-3.075,3.738-7.744,1.768-11.582c-1.971-3.838-6.176-5.98-10.443-5.312c-61.035,9.56-117.96,36.267-164.619,77.233
				c-9.017,7.917-17.517,16.259-25.48,24.982c-5.163-63.731-10.764-114.081-16.679-149.88c-3.445-20.853-7.049-36.945-10.712-47.831
				c-2.296-6.823-7.672-22.8-20.344-22.8c-11.739,0-17.367,13.063-21.324,25.841c-3.921,12.66-7.774,31.395-11.454,55.685
				c-6.336,41.825-12.264,100.311-17.656,174.101c-20.644-26.674-46.53-49.81-77.131-68.87
				c-58.318-36.324-113.017-45.204-115.316-45.564c-4.259-0.668-8.473,1.472-10.443,5.311c-1.971,3.838-1.258,8.507,1.769,11.582
				c57.061,57.981,90.523,108.015,110.142,146.984c-11.479-11.858-23.653-21.054-34.91-28.065
				c-35.656-22.21-69.238-27.66-70.65-27.881c-4.259-0.669-8.473,1.472-10.443,5.312c-1.971,3.838-1.258,8.507,1.768,11.582
				c47.968,48.741,67.728,87.84,75.857,112.057c4.923,14.663,6.27,25.737,6.508,32.616h-4.231c-0.004,0-0.007,0-0.01,0H39.56
				c-5.522,0-10,4.477-10,10s4.478,10,10,10l462.441,0.001c5.522,0,10-4.477,10-10S507.524,451.346,502.001,451.346z
				 M243.926,136.128c6.021-42.952,11.299-61.954,14.596-70.303c2.989,7.568,7.617,23.899,12.936,58.89
				c5.845,38.448,11.384,91.75,16.467,158.452c-18.092,23.846-32.512,49.996-42.871,77.778
				c-5.311-13.249-11.585-25.931-18.795-38.021C231.624,244.349,237.566,181.506,243.926,136.128z M105.249,451.346
				c-0.575-20.867-9.075-67.727-63.475-131.814c9.131,3.68,19.407,8.6,29.852,15.105c42.805,26.662,67.312,65.929,72.841,116.709
				H105.249z M166.281,451.345c0.282-12.734-1.234-35.268-11.13-66.029c-17.976-55.883-54.948-114.774-110.07-175.403
				c20.315,6.435,47.866,17.295,75.915,34.857c36.418,22.802,65.053,50.957,85.762,84.234c0.423,1.082,1.019,2.08,1.773,2.944
				c11.632,19.291,20.648,40.27,27.018,62.894c0.119,0.665,0.305,1.31,0.552,1.931c4.122,15.059,7.089,30.836,8.877,47.327
				c0.264,2.431,0.508,4.845,0.74,7.245H166.281z M333.663,451.346h-18.589c-0.963-34.57,8.466-73.433,28.07-115.602
				c2.328-5.008,0.155-10.956-4.853-13.284c-5.011-2.329-10.956-0.155-13.284,4.852c-20.818,44.782-30.873,86.475-29.938,124.034
				H265.81c-0.291-3.104-0.608-6.246-0.951-9.402c-1.836-16.93-4.883-33.24-9.11-48.894
				c26.988-100.202,110.228-180.414,212.73-207.794c-30.747,33.475-56.67,66.818-77.272,99.419
				c-20.472,32.394-35.79,64.17-45.529,94.445C334.738,413.133,333.267,437.797,333.663,451.346z M367.533,451.345
				c5.503-50.53,29.808-89.669,72.24-116.332c10.608-6.665,21.105-11.697,30.426-15.45c-54.373,64.07-62.871,110.918-63.446,131.782
				H367.533z"/>
			<path d="M358.524,305.121c2.808-4.574,1.502-10.585-3.009-13.568c-4.607-3.046-10.812-1.783-13.857,2.825
				c-0.492,0.744-0.9,1.543-1.1,1.953c-2.416,4.966-0.346,10.946,4.62,13.362c1.408,0.685,2.897,1.009,4.364,1.009
				C353.233,310.702,356.783,308.649,358.524,305.121z"/>
			<path d="M10.475,451.345H10c-5.522,0-10,4.477-10,10s4.478,10,10,10h0.475c5.523,0,10-4.477,10-10S15.997,451.345,10.475,451.345
				z"/>
		</g>
	</g>
</g>
<g>
</g>
<g>
</g>
<g>
</g>
<g>
</g>
<g>
</g>
<g>
</g>
<g>
</g>
<g>
</g>
<g>
</g>
<g>
</g>
<g>
</g>
<g>
</g>
<g>
</g>
<g>
</g>
<g>
</g>
</svg>
