<svg id="Layer_1" enable-background="new 0 0 64.002 64.002" height="512" viewBox="0 0 64.002 64.002" width="512" xmlns="http://www.w3.org/2000/svg"><path d="m63.002 40.001h-1.18c.186-.519.232-1.077.113-1.629-2.624-12.245 1.481-18.587 1.508-18.628.961-1.346.648-3.223-.698-4.185-1.302-.93-3.261-.6-4.186.698-.123.173-2.907 4.156-3.422 11.743h-5.136c-1.144 0-2.172.636-2.685 1.66-.237.476-2.315 4.788-2.315 9.34 0 .352.072.685.185 1h-6.158c.171-3.415 1.22-4.386 2.158-5.242.851-.778 1.815-1.66 1.815-3.758v-3c0-1.654-1.346-3-3-3h-2.948c.443-4.023-1.501-8.748-4.627-10.832-.307-.204-.701-.224-1.026-.05s-.528.513-.528.882c0 2.649-.825 3.681-1.781 4.875-.929 1.162-1.963 2.473-2.174 5.125h-2.915c-1.654 0-3 1.346-3 3v3c0 2.098.965 2.98 1.815 3.758.939.857 1.987 1.827 2.158 5.242h-6.158c.112-.315.185-.648.185-1 0-4.552-2.078-8.863-2.316-9.342-.512-1.022-1.54-1.658-2.684-1.658h-5.135c-.515-7.587-3.299-11.57-3.422-11.742-.925-1.298-2.885-1.627-4.186-.698-1.347.962-1.659 2.839-.714 4.163.042.062 4.147 6.404 1.523 18.649-.118.552-.072 1.11.113 1.629h-1.18c-.553 0-1 .447-1 1v8c0 .553.447 1 1 1h62c.553 0 1-.447 1-1v-8c.001-.553-.446-1-.999-1zm-1 4h-2v-2h2zm-8 0v-2h4v2zm-6 0v-2h4v2zm-6 0v-2h4v2zm-6 0v-2h4v2zm-6 0v-2h4v2zm-6 0v-2h4v2zm-6 0v-2h4v2zm-6 0v-2h4v2zm-6 0v-2h4v2zm1.82-4c.043-.122.087-.243.114-.372.404-1.887.684-3.736.848-5.628h3.216c.451 1.259 1.003 3.173 1.003 5 0 .352.072.685.185 1zm42.996 0c.112-.315.185-.648.185-1 0-1.827.552-3.741 1.003-5h3.216c.164 1.892.443 3.741.848 5.629.027.129.071.25.114.371zm-1.71-9.447c.17-.341.513-.553.895-.553h6.083c.536 0 .977-.424.999-.96.309-7.621 2.99-11.462 3.104-11.622.311-.436.955-.544 1.395-.233.449.321.554.947.222 1.411-.191.279-4.654 6.992-1.824 20.194.056.261.007.528-.139.752-.146.225-.369.379-.631.435-.496.11-1.073-.238-1.188-.768-.45-2.102-.737-4.154-.878-6.276-.035-.525-.472-.934-.998-.934h-4.835c-.41 0-.779.251-.93.633-.63 1.594-1.381 3.993-1.381 6.367 0 .552-.448 1-1 1s-1-.448-1-1c0-4.164 2.021-8.275 2.106-8.446zm-18.454-9.428c.796-.995 1.673-2.092 2.041-4.053 1.746 2.038 2.716 5.236 2.337 7.928h-2.029v-1c0-.553-.447-1-1-1s-1 .447-1 1v1h-2.083c.185-1.931.909-2.845 1.734-3.875zm-6.652 5.875h16c.552 0 1 .448 1 1v1h-18v-1c0-.552.449-1 1-1zm.165 6.281c-.751-.687-1.165-1.066-1.165-2.281h18c0 1.216-.414 1.595-1.165 2.281-1.114 1.018-2.611 2.392-2.812 6.719h-10.046c-.2-4.327-1.697-5.7-2.812-6.719zm-21.979-14.7c-.32-.448-.216-1.074.233-1.396.439-.311 1.084-.203 1.395.233.114.159 2.796 4 3.105 11.621.021.536.463.96.999.96h6.083c.382 0 .725.212.894.551.086.173 2.106 4.284 2.106 8.449 0 .552-.448 1-1 1s-1-.448-1-1c0-2.374-.751-4.773-1.381-6.367-.15-.382-.52-.633-.93-.633h-4.835c-.526 0-.963.408-.998.934-.141 2.122-.428 4.175-.878 6.275-.114.531-.689.879-1.187.769-.262-.057-.485-.211-.631-.435s-.194-.491-.139-.752c2.83-13.201-1.633-19.914-1.836-20.209zm1.814 23.419v2h-2v-2zm-2 6v-2h60v2z"/></svg>