<svg width="16" height="17" viewBox="0 0 16 17" fill="none" xmlns="http://www.w3.org/2000/svg">
<path d="M12.9599 9.16668C12.8133 9.16668 12.6599 9.12001 12.5133 9.08668C12.2163 9.02123 11.9244 8.93434 11.6399 8.82668C11.3307 8.71417 10.9907 8.72001 10.6855 8.84309C10.3803 8.96616 10.1313 9.19777 9.98661 9.49335L9.83995 9.79335C9.19061 9.43213 8.59393 8.9835 8.06661 8.46001C7.54312 7.93269 7.09449 7.33601 6.73328 6.68668L7.01328 6.50001C7.30886 6.35529 7.54047 6.10637 7.66354 5.80114C7.78662 5.49592 7.79246 5.15596 7.67995 4.84668C7.57409 4.56163 7.48724 4.26988 7.41995 3.97335C7.38661 3.82668 7.35995 3.67335 7.33995 3.52001C7.25899 3.05043 7.01303 2.62518 6.64636 2.32084C6.27969 2.0165 5.81641 1.85309 5.33995 1.86001H3.33995C3.05263 1.85732 2.76811 1.91656 2.50575 2.0337C2.24339 2.15085 2.00935 2.32314 1.81957 2.53887C1.62978 2.75459 1.4887 3.00868 1.40594 3.28382C1.32317 3.55897 1.30066 3.84872 1.33995 4.13335C1.6951 6.92627 2.97063 9.52127 4.96505 11.5084C6.95946 13.4956 9.55908 14.7617 12.3533 15.1067H12.6066C13.0982 15.1074 13.5729 14.927 13.9399 14.6C14.1509 14.4114 14.3193 14.1801 14.4343 13.9216C14.5492 13.663 14.6079 13.383 14.6066 13.1V11.1C14.5984 10.6369 14.4298 10.191 14.1295 9.83846C13.8292 9.48587 13.4158 9.24843 12.9599 9.16668ZM13.2933 13.1667C13.2932 13.2613 13.2729 13.3549 13.2338 13.4411C13.1947 13.5273 13.1377 13.6042 13.0666 13.6667C12.9923 13.7314 12.9053 13.7796 12.8111 13.8083C12.7169 13.8371 12.6177 13.8456 12.5199 13.8333C10.0232 13.5132 7.7041 12.371 5.92842 10.5869C4.15274 8.80274 3.02155 6.47824 2.71328 3.98001C2.70267 3.88236 2.71197 3.78357 2.74061 3.68961C2.76926 3.59565 2.81666 3.50847 2.87995 3.43335C2.94242 3.36223 3.01932 3.30524 3.10553 3.26616C3.19174 3.22708 3.28529 3.2068 3.37995 3.20668H5.37994C5.53498 3.20323 5.68636 3.25393 5.80804 3.35006C5.92972 3.44619 6.01409 3.58173 6.04661 3.73335C6.07328 3.91557 6.10661 4.09557 6.14661 4.27335C6.22363 4.62478 6.32612 4.97013 6.45328 5.30668L5.51995 5.74001C5.44014 5.77663 5.36836 5.82864 5.30872 5.89308C5.24907 5.95751 5.20275 6.03309 5.17239 6.11548C5.14204 6.19786 5.12826 6.28543 5.13184 6.37316C5.13543 6.46089 5.15631 6.54704 5.19328 6.62668C6.15275 8.68185 7.80478 10.3339 9.85995 11.2933C10.0223 11.36 10.2043 11.36 10.3666 11.2933C10.4498 11.2636 10.5262 11.2176 10.5914 11.1581C10.6566 11.0986 10.7094 11.0268 10.7466 10.9467L11.1599 10.0133C11.5046 10.1366 11.8563 10.239 12.2133 10.32C12.3911 10.36 12.5711 10.3933 12.7533 10.42C12.9049 10.4525 13.0404 10.5369 13.1366 10.6586C13.2327 10.7803 13.2834 10.9317 13.2799 11.0867L13.2933 13.1667Z" fill="#F7F7F7"/>
</svg>
