<svg id="Layer_1" enable-background="new 0 0 53 53" height="512" viewBox="0 0 53 53" width="512" xmlns="http://www.w3.org/2000/svg"><g id="_x36_5"><path d="m19.7558632 7.5466309 1.4697266-.8544922c.2392578-.1386719.3203125-.4448242.1816406-.6835938-.1396484-.2397461-.4472656-.3193359-.6835938-.1806641l-1.4697265.8544922c-.2392578.1386719-.3203125.4448242-.1816406.6835938.1375598.2367477.4427909.3203893.6835937.1806641z"/><path d="m50.2500038 30.4914551-5.7697754-3.3256836c.0015259-.5989742.0090332-3.6006317.0090332-3.4521484 0-.1782227-.0947266-.3427734-.2490234-.4321289l-5.7601318-3.3354492c.0042381-2.060276.0091553-4.4810038.0091553-4.3325195 0-.1004562-.0666428-.3264837-.25-.4321289l-5.7684937-3.3255006.0184937-5.02948c.0009766-.1791992-.0947266-.3452148-.25-.4350586-.0049438-.0028076-.0109253-.0015869-.0159302-.0042725l-6.0006714-3.4644773c-.1552734-.0893555-.3476563-.0893555-.5009766.0009766l-3.3564453 1.9501951c-.2392578.1386719-.3203125.4443359-.1816406.6831093.1386719.2397423.4462891.3183556.6835938.1811485l3.1064453-1.8046873 5.0142822 2.8950803-21.9190674 12.7381593-5.0147095-2.8952637 14.1011353-8.1950073c.2392578-.1386719.3203125-.4448242.1816406-.6835938-.1396484-.2397461-.4472656-.3193359-.6835938-.1806641l-14.8486328 8.6293946c-.1542969.0893555-.2490234.2543945-.2490234.4326172 0 .005127.0036621.0092163.0038452.0143433l-.0595093 19.0545043c-.0009766.1791992.0947266.3447266.25.4345703 21.5425587 12.4409447-13.9519186-8.0465851 24.0693359 13.8999023.15448.088974.3437786.0894127.4990234 0 .0002441-.0001221.0003662-.0004883.0006104-.0006104 35.3727913-20.5561237 17.8587227-10.3782043 22.9212646-13.3201904.1542969-.0893555.2490234-.253418.2490234-.4311523l.0107422-5.3999023c0-.0003662-.0002441-.0006104-.0002441-.0009766s.0002441-.0006104.0002441-.0009766c.0000001-.1004562-.0666426-.3264846-.2499999-.4321288zm-6.7695312-3.3256836-21.9150391 12.7265014.0039063-2.5805054c5.1591854-2.9959412 16.5964661-9.6375809 21.9179688-12.7277832zm-16.40094 16.5007324c-.1014843-.0586548-5.3333397-3.0825005-5.022583-2.9028931l21.923645-12.7315674 5.0213623 2.8944702zm-6.0108642-7.2201538c-.2586288-.1491661 1.3283863.7663193-5.0134888-2.8921509l21.9243164-12.7419433 5.0126953 2.9023438zm10.4020385-24.5901489-21.9091796 12.7377929c.0001717-.1006927.0075474-4.432909.0070801-4.1582642l21.9177245-12.7371825zm-15.9022216 17.3661499 21.9188232-12.7377319-.0068359 3.4614258-21.9189453 12.7382812c.0002059-.102684.007389-3.6766835.006958-3.4619751zm-.4997559-.8658448-5.0118408-2.8939819 21.9138184-12.7406006 5.0205078 2.8945313zm-11.512085-10.8162231 5.0117188 2.8934937c-.0095434 3.692812.0242357-9.3776255-.0463257 17.9251099l-5.0210571-2.9025879zm6 8.7885742c.1805573.10425 5.3403168 3.0834045 5.0117188 2.8936768-.0123854 4.3142471-.0217104 7.5623131-.0361938 12.6072388l-5.0116577-2.8934937zm5.9990235 8.091919c1.2532215.7229538 4.8993282 2.8263092 5.0129395 2.8917236-.0192547 7.5574608-.0089054 4.1299324-.0172119 7.9873047l-5.0211182-2.8937988zm6.0038452 7.2104492 5.0195923 2.9017334c-.0001907.1006927-.0085564 4.5087738-.0080566 4.2454834l-5.0202637-2.9022217c.0003471-.1692963.0092983-4.5223427.008728-4.2449951zm27.9307251-5.5948486-21.9189453 12.737793c.0002003-.102684.0087299-4.4939842.0082397-4.2419434l21.9185181-12.7375488z"/></g></svg>