<svg id="Capa_1" enable-background="new 0 0 512 512" height="512" viewBox="0 0 512 512" width="512" xmlns="http://www.w3.org/2000/svg"><g><path d="m499.479 332.18h-210.255v-33.31c0-17.119 8.241-33.384 22.045-43.509l32.865-24.109h19.345c13.386 0 24.277-10.891 24.277-24.277s-10.891-24.277-24.277-24.277h-.516l21.03-11.838c4.694-2.642 10.022-4.039 15.41-4.039 17.322 0 31.414 14.092 31.414 31.415v61.807c0 18.587 3.557 36.741 10.573 53.955 1.565 3.881 6.047 5.678 9.792 4.122 3.842-1.566 5.688-5.951 4.122-9.793-6.278-15.404-9.461-31.65-9.461-48.284v-61.807c0-25.607-20.833-46.441-46.441-46.441-7.964 0-15.842 2.065-22.78 5.971l-44.56 24.931h-50.637v-17.784c0-9.354 4.503-18.242 12.046-23.775l16.268-11.933h6.114c12.145 0 22.026-9.881 22.026-22.027s-9.881-22.027-22.026-22.027h-119.706c-12.145 0-22.026 9.881-22.026 22.027s9.881 22.027 22.026 22.027h6.112l16.27 11.933c7.542 5.534 12.045 14.421 12.045 23.775v17.784h-51.009l-44.278-24.93c-6.939-3.907-14.817-5.972-22.781-5.972-25.607 0-46.441 20.833-46.441 46.441v61.807c0 16.635-3.183 32.88-9.461 48.284-1.566 3.843.279 8.227 4.122 9.793 3.745 1.555 8.227-.241 9.793-4.121 7.015-17.213 10.573-35.366 10.573-53.956v-61.807c0-17.323 14.093-31.415 31.415-31.415 5.387 0 10.716 1.397 15.41 4.04l21.028 11.837h-.424c-13.386 0-24.277 10.891-24.277 24.277s10.891 24.277 24.277 24.277h19.345l32.866 24.109c13.803 10.125 22.044 26.39 22.044 43.509v33.31h-210.255c-6.904 0-12.521 5.618-12.521 12.522v22.289c0 15.19 12.358 27.547 27.547 27.547h37.964c2.874 0 5.492 1.681 6.831 4.385 10.149 20.505 30.653 33.242 53.511 33.242h22.088c4.149 0 7.513-3.363 7.513-7.513s-3.364-7.513-7.513-7.513h-22.088c-17.104 0-32.448-9.534-40.045-24.882-3.892-7.862-11.669-12.745-20.297-12.745h-37.964c-6.904 0-12.521-5.617-12.521-12.521v-19.785h481.949v19.785c0 6.904-5.617 12.521-12.521 12.521h-37.964c-8.628 0-16.406 4.883-20.297 12.745-7.597 15.349-22.942 24.882-40.045 24.882h-199.767c-4.149 0-7.513 3.363-7.513 7.513s3.364 7.513 7.513 7.513h18.47v6.103c0 12.948-6.233 25.25-16.673 32.909l-12.698 9.315c-3.985 2.923-5.629 8.043-4.091 12.741 1.538 4.697 5.892 7.852 10.835 7.852h147.553c4.942 0 9.297-3.156 10.835-7.852 1.538-4.697-.106-9.818-4.091-12.741l-12.698-9.316c-10.44-7.658-16.673-19.96-16.673-32.908v-6.103h78.998c22.857 0 43.362-12.738 53.511-33.242 1.339-2.705 3.956-4.385 6.831-4.385h37.963c15.19 0 27.547-12.357 27.547-27.547v-22.289c0-6.904-5.617-12.522-12.521-12.522zm-310.333-225c0-3.86 3.141-7.001 7.001-7.001h119.706c3.86 0 7 3.141 7 7.001s-3.14 7.001-7 7.001h-119.706c-3.86 0-7.001-3.141-7.001-7.001zm38.504 22.027h56.7c-11.242 8.365-17.95 21.686-17.95 35.708v17.784h-20.8v-17.784c0-14.022-6.708-27.343-17.95-35.708zm-18.031 114.038-16.348-11.992h62.197c4.15 0 7.513-3.363 7.513-7.513s-3.363-7.513-7.513-7.513h-106.948c-5.101 0-9.251-4.15-9.251-9.251s4.15-9.251 9.251-9.251h214.96c5.102 0 9.251 4.15 9.251 9.251 0 5.102-4.15 9.251-9.251 9.251h-68.507c-4.15 0-7.513 3.363-7.513 7.513s3.363 7.513 7.513 7.513h23.757l-16.347 11.992c-17.648 12.945-28.184 33.739-28.184 55.625v33.31h-36.397v-33.31c-.001-21.885-10.536-42.68-28.183-55.625zm105.316 240.047 3.772 2.767h-125.414l3.772-2.766c14.284-10.478 22.811-27.309 22.811-45.024v-6.103h72.247v6.103c0 17.715 8.528 34.546 22.812 45.023z"/><path d="m409.964 190.725c-4.15 0-7.513 3.363-7.513 7.513v63.264c0 17.145 1.736 34.358 5.16 51.162 1.851 9.618 16.802 6.496 14.722-2.999-3.222-15.819-4.857-32.023-4.857-48.162v-63.264c.001-4.151-3.362-7.514-7.512-7.514z"/><path d="m96.944 318.679c3.497 0 6.629-2.455 7.354-6.015 3.424-16.801 5.16-34.015 5.16-51.162v-63.264c0-4.15-3.364-7.513-7.513-7.513s-7.513 3.363-7.513 7.513v63.264c0 16.141-1.634 32.345-4.857 48.162-.994 4.592 2.685 9.062 7.369 9.015z"/><path d="m139.269 311.164v-56.463c0-4.15-3.364-7.513-7.513-7.513s-7.513 3.363-7.513 7.513v56.463c0 4.15 3.364 7.513 7.513 7.513 4.15 0 7.513-3.363 7.513-7.513z"/><path d="m372.731 254.701v56.463c0 4.15 3.363 7.513 7.513 7.513s7.513-3.363 7.513-7.513v-56.463c0-4.15-3.363-7.513-7.513-7.513-4.15.001-7.513 3.364-7.513 7.513z"/><path d="m210.542 36.659 2.204 1.885c6.605 5.648 10.393 13.872 10.393 22.563v5.904c0 4.15 3.364 7.513 7.513 7.513s7.513-3.363 7.513-7.513v-5.904c0-13.09-5.706-25.476-15.654-33.983l-2.204-1.885c-3.153-2.697-7.896-2.327-10.593.828-2.696 3.152-2.325 7.895.828 10.592z"/><path d="m135.206 139.901c3.78 1.458 8.221-.451 9.684-4.372l3.999-10.579c4.615-12.21 6.955-25.02 6.955-38.074v-14.721c0-10.57 8.599-19.169 19.168-19.169 6.105 0 11.896 2.945 15.491 7.88l8.432 11.571c2.443 3.352 7.143 4.09 10.496 1.647 3.353-2.444 4.091-7.143 1.647-10.496l-8.432-11.571c-6.414-8.801-16.745-14.056-27.635-14.056-18.855 0-34.194 15.34-34.194 34.194v14.721c0 11.232-2.014 22.255-5.985 32.762l-3.999 10.579c-1.465 3.881.492 8.216 4.373 9.684z"/><path d="m281.72 74.523c4.15 0 7.513-3.363 7.513-7.513v-5.904c0-8.691 3.788-16.915 10.394-22.564l2.204-1.885c3.153-2.697 3.523-7.439.826-10.592-2.696-3.153-7.439-3.524-10.592-.826l-2.203 1.884c-9.949 8.507-15.654 20.893-15.654 33.983v5.904c-.001 4.15 3.362 7.513 7.512 7.513z"/><path d="m301.16 74.084c3.353 2.445 8.054 1.707 10.496-1.647l8.431-11.571c3.595-4.934 9.387-7.88 15.491-7.88 10.57 0 19.169 8.599 19.169 19.169v14.721c0 13.055 2.341 25.865 6.956 38.074l3.998 10.579c3.372 9.203 17.622 3.727 14.055-5.312l-3.998-10.58c-3.972-10.506-5.986-21.528-5.986-32.761v-14.721c0-18.854-15.34-34.194-34.194-34.194-10.89 0-21.221 5.255-27.635 14.056l-8.431 11.571c-2.443 3.353-1.705 8.052 1.648 10.496z"/><path d="m256 74.523c4.15 0 7.513-3.363 7.513-7.513v-48.583c0-4.15-3.363-7.513-7.513-7.513-4.149 0-7.513 3.363-7.513 7.513v48.583c0 4.15 3.364 7.513 7.513 7.513z"/></g></svg>